<svg xmlns="http://www.w3.org/2000/svg" xmlns:xlink="http://www.w3.org/1999/xlink" width="500" zoomAndPan="magnify" viewBox="0 0 375 374.999991" height="500" preserveAspectRatio="xMidYMid meet" version="1.0"><defs><g/></defs><g fill="#ffffff" fill-opacity="1"><g transform="translate(94.702156, 316.868378)"><g><path d="M 243.046875 -3.328125 L 247.046875 -3.328125 L 247.046875 0 L 174.375 0 L 174.375 -3.328125 L 178.703125 -3.328125 C 184.265625 -3.328125 189.097656 -5.269531 193.203125 -9.15625 C 197.316406 -13.050781 199.597656 -17.890625 200.046875 -23.671875 L 200.046875 -110.359375 L 71.015625 -110.359375 L 71.015625 -23.34375 C 71.015625 7.78125 63.457031 28.675781 48.34375 39.34375 C 41.457031 44.226562 32.566406 47.894531 21.671875 50.34375 L 20 47.34375 C 30 42.007812 37.390625 33.785156 42.171875 22.671875 C 46.953125 11.554688 49.34375 -3.78125 49.34375 -23.34375 L 49.34375 -209.375 C 49.34375 -215.15625 47.226562 -220.046875 43 -224.046875 C 38.78125 -228.046875 33.78125 -230.046875 28 -230.046875 L 24 -230.046875 L 24 -233.390625 L 96.6875 -233.390625 L 96.6875 -230.046875 L 92.359375 -230.046875 C 86.578125 -230.046875 81.628906 -228.046875 77.515625 -224.046875 C 73.398438 -220.046875 71.234375 -215.15625 71.015625 -209.375 L 71.015625 -120.359375 L 200.046875 -120.359375 L 200.046875 -203.375 C 200.265625 -231.820312 206.597656 -251.601562 219.046875 -262.71875 C 226.609375 -269.382812 236.832031 -274.164062 249.71875 -277.0625 L 251.390625 -274.0625 C 241.390625 -268.726562 233.941406 -260.503906 229.046875 -249.390625 C 224.160156 -238.273438 221.71875 -222.9375 221.71875 -203.375 L 221.71875 -24.34375 C 221.71875 -18.5625 223.769531 -13.613281 227.875 -9.5 C 231.988281 -5.382812 237.046875 -3.328125 243.046875 -3.328125 Z M 243.046875 -3.328125 "/></g></g></g><g fill="#ffffff" fill-opacity="1"><g transform="translate(1.213128, 251.253413)"><g><path d="M 88.6875 -3.328125 L 93.015625 -3.328125 L 93.015625 0 L 20 0 L 20 -3.328125 L 24.34375 -3.328125 C 30.113281 -3.328125 35.054688 -5.382812 39.171875 -9.5 C 43.285156 -13.613281 45.453125 -18.5625 45.671875 -24.34375 L 45.671875 -209.375 C 45.453125 -215.15625 43.285156 -220.046875 39.171875 -224.046875 C 35.054688 -228.046875 30.113281 -230.046875 24.34375 -230.046875 L 20 -230.046875 L 20 -233.390625 L 93.015625 -233.390625 L 93.015625 -230.046875 L 88.6875 -230.046875 C 82.90625 -230.046875 77.957031 -228.046875 73.84375 -224.046875 C 69.738281 -220.046875 67.570312 -215.15625 67.34375 -209.375 L 67.34375 -24.34375 C 67.34375 -18.5625 69.453125 -13.613281 73.671875 -9.5 C 77.898438 -5.382812 82.90625 -3.328125 88.6875 -3.328125 Z M 319.734375 50.015625 L 319.734375 53.34375 C 311.285156 55.34375 302.835938 56.34375 294.390625 56.34375 C 257.941406 56.34375 222.601562 38.117188 188.375 1.671875 L 78.015625 -116.03125 L 156.703125 -214.71875 C 158.484375 -216.9375 159.375 -218.929688 159.375 -220.703125 C 159.375 -222.484375 159.039062 -224.039062 158.375 -225.375 C 156.59375 -228.71875 153.367188 -230.390625 148.703125 -230.390625 L 145.359375 -230.390625 L 145.359375 -233.390625 L 215.71875 -233.390625 L 215.71875 -230.390625 L 214.375 -230.390625 C 199.707031 -230.390625 187.707031 -225.164062 178.375 -214.71875 L 100.6875 -125.03125 L 214.046875 -4 C 228.710938 11.78125 245.210938 24.726562 263.546875 34.84375 C 281.890625 44.957031 300.617188 50.015625 319.734375 50.015625 Z M 319.734375 50.015625 "/></g></g></g></svg>